# xmcd
#
# Track frame offsets:
#	200
#	12948
#	28657
#	39055
#	60882
#	72592
#	90377
#	106668
#	117623
#	133613
#	144937
#	157532
#
# Disc length: 2352 seconds
#
# Revision: 0
# Processed by: cddbd v1.5.1PL2 Copyright (c) Steve Scherf et al.
# Submitted via: audiograbber 1.83.01
#
DISCID=88092e0c
DTITLE=Rod Snow  - Rod Snow and Steel Rail 
DYEAR=1900
DGENRE=
TTITLE0=Another Bridge to burn
TTITLE1=When I Close My Eyes
TTITLE2=A-11.
TTITLE3=It Isn't Over Yet
TTITLE4=The Other Woman
TTITLE5=Amazing Grace.
TTITLE6=Juke Box In My Mind.
TTITLE7=Lets stop Before We Start
TTITLE8=Silver Wings
TTITLE9=I'll Aways Love You
TTITLE10=Don't Come Around At All
TTITLE11=How Great Thou Art.
EXTD=
EXTT0=
EXTT1=
EXTT2=
EXTT3=
EXTT4=
EXTT5=
EXTT6=
EXTT7=
EXTT8=
EXTT9=
EXTT10=
EXTT11=
PLAYORDER=
